<svg width="32" height="32" viewBox="0 0 32 32" fill="none" xmlns="http://www.w3.org/2000/svg">
<path d="M4 29C3.86839 29.0008 3.73793 28.9755 3.61609 28.9258C3.49426 28.876 3.38344 28.8027 3.29 28.71C3.19627 28.617 3.12188 28.5064 3.07111 28.3846C3.02034 28.2627 2.9942 28.132 2.9942 28C2.9942 27.868 3.02034 27.7373 3.07111 27.6154C3.12188 27.4936 3.19627 27.383 3.29 27.29L27.29 3.29C27.4783 3.1017 27.7337 2.99591 28 2.99591C28.2663 2.99591 28.5217 3.1017 28.71 3.29C28.8983 3.47831 29.0041 3.7337 29.0041 4C29.0041 4.2663 28.8983 4.5217 28.71 4.71L4.71 28.71C4.61656 28.8027 4.50574 28.876 4.38391 28.9258C4.26207 28.9755 4.13161 29.0008 4 29Z" fill="white"/>
<path d="M28 29C27.8684 29.0008 27.7379 28.9755 27.6161 28.9258C27.4943 28.876 27.3834 28.8027 27.29 28.71L3.29 4.71C3.1017 4.5217 2.99591 4.2663 2.99591 4C2.99591 3.7337 3.1017 3.47831 3.29 3.29C3.47831 3.1017 3.7337 2.99591 4 2.99591C4.2663 2.99591 4.5217 3.1017 4.71 3.29L28.71 27.29C28.8037 27.383 28.8781 27.4936 28.9289 27.6154C28.9797 27.7373 29.0058 27.868 29.0058 28C29.0058 28.132 28.9797 28.2627 28.9289 28.3846C28.8781 28.5064 28.8037 28.617 28.71 28.71C28.6166 28.8027 28.5057 28.876 28.3839 28.9258C28.2621 28.9755 28.1316 29.0008 28 29Z" fill="white"/>
</svg>
